<svg width="72" height="72" viewBox="0 0 24 24" fill="none" xmlns="http://www.w3.org/2000/svg">
<g clip-path="url(#clip0_50_35)">
<path d="M24 18.588C23.6507 18.7199 23.2652 18.7195 22.9161 18.5869C22.5671 18.4542 22.2786 18.1986 22.105 17.868L18.655 13.097L18.155 12.43L14.152 17.874C13.989 18.1908 13.7161 18.4375 13.3845 18.5678C13.0529 18.6981 12.6851 18.7031 12.35 18.582L17.508 11.662L12.71 5.41099C13.055 5.28667 13.4323 5.28502 13.7784 5.40633C14.1244 5.52763 14.4181 5.76448 14.61 6.07699L18.186 10.907L21.782 6.09699C21.9463 5.78578 22.2192 5.54578 22.5488 5.42262C22.8785 5.29946 23.2419 5.30173 23.57 5.42899L21.708 7.89999L19.186 11.183C19.116 11.2455 19.0599 11.322 19.0215 11.4077C18.9832 11.4933 18.9633 11.5861 18.9633 11.68C18.9633 11.7738 18.9832 11.8666 19.0215 11.9523C19.0599 12.0379 19.116 12.1145 19.186 12.177L23.99 18.589L24 18.588ZM0.00199976 11.576L0.422 9.50099C1.576 5.39799 6.28 3.69099 9.516 6.23099C11.411 7.71999 11.884 9.82799 11.791 12.204H1.116C0.943 16.447 4.005 19.009 7.92 17.7C8.55457 17.4714 9.12256 17.089 9.57315 16.5871C10.0237 16.0852 10.3429 15.4794 10.502 14.824C10.709 14.158 11.05 14.044 11.676 14.236C11.5715 15.0483 11.2842 15.8264 10.8358 16.5117C10.3874 17.1971 9.78947 17.7719 9.087 18.193C7.9265 18.8281 6.59484 19.0799 5.28256 18.9123C3.97029 18.7447 2.74464 18.1664 1.781 17.26C0.828343 16.1872 0.252437 14.8324 0.141 13.402C0.141 13.167 0.0609998 12.947 0.00699976 12.736C0.00212228 12.3497 -0.000211104 11.9633 -2.44954e-07 11.577L0.00199976 11.576ZM1.129 11.29H10.783C10.723 8.21399 8.782 6.03199 6.193 6.01199C3.311 5.97199 1.249 8.10599 1.122 11.276L1.129 11.29Z" fill="black"/>
</g>
<defs>
<clipPath id="clip0_50_35">
<rect width="24" height="24" fill="white"/>
</clipPath>
</defs>
</svg>
