<svg width="72" height="72" viewBox="0 0 72 72" fill="none" xmlns="http://www.w3.org/2000/svg">
<path d="M18 9C15.6131 9 13.3239 9.94821 11.636 11.636C9.94821 13.3239 9 15.6131 9 18V54C9 56.3869 9.94821 58.6761 11.636 60.364C13.3239 62.0518 15.6131 63 18 63H54C56.3869 63 58.6761 62.0518 60.364 60.364C62.0518 58.6761 63 56.3869 63 54V18C63 15.6131 62.0518 13.3239 60.364 11.636C58.6761 9.94821 56.3869 9 54 9H18ZM40.002 48.165C42.162 49.905 44.316 50.76 46.47 50.739C47.79 50.739 48.804 50.499 49.506 50.013C49.8338 49.8002 50.1005 49.5057 50.2799 49.1586C50.4592 48.8114 50.5451 48.4235 50.529 48.033C50.5334 47.6071 50.4443 47.1855 50.268 46.7978C50.0918 46.4101 49.8327 46.0657 49.509 45.789C48.804 45.174 47.472 44.559 45.513 43.941C43.161 43.26 41.343 42.381 40.068 41.301C38.814 40.221 38.178 38.715 38.154 36.78C38.154 34.953 38.946 33.426 40.53 32.193C42.072 30.963 44.04 30.345 46.44 30.345C49.782 30.345 52.467 31.158 54.489 32.787L52.179 36.384C51.3473 35.7371 50.3931 35.2656 49.374 34.998C48.4582 34.6917 47.5015 34.5248 46.536 34.503C45.396 34.503 44.481 34.713 43.797 35.13C43.116 35.55 42.777 36.099 42.777 36.78C42.777 37.53 43.194 38.166 44.028 38.694C44.868 39.201 46.296 39.762 48.318 40.377C50.76 41.103 52.5 42.072 53.532 43.281C54.567 44.49 55.083 46.032 55.083 47.901C55.083 49.815 54.348 51.465 52.872 52.851C51.42 54.216 49.308 54.93 46.536 54.996C42.906 54.996 39.87 53.907 37.428 51.729L40.002 48.165ZM23.412 50.079C24.117 50.52 24.963 50.739 25.953 50.739C26.988 50.739 27.843 50.442 28.527 49.848C29.208 49.233 29.55 48.165 29.55 46.647V30.741H34.005V47.505C33.939 50.1 33.192 51.972 31.761 53.115C30.9802 53.7789 30.07 54.2734 29.088 54.567C28.1785 54.8441 27.2338 54.9886 26.283 54.996C24.633 54.996 23.169 54.711 21.894 54.138C20.529 53.523 19.386 52.434 18.462 50.871L21.564 48.33C22.134 49.101 22.752 49.683 23.412 50.079Z" fill="#181818"/>
</svg>
