<svg width="72" height="72" viewBox="0 0 72 72" fill="none" xmlns="http://www.w3.org/2000/svg">
<path d="M36 71.868C34.974 71.868 34.02 71.601 33.129 71.139L24.042 65.925C22.677 65.199 23.361 64.935 23.772 64.803C25.614 64.209 25.956 64.077 27.87 63.018C28.074 62.886 28.35 62.952 28.554 63.084L35.523 67.113C35.793 67.245 36.138 67.245 36.342 67.113L63.603 51.861C63.873 51.729 64.011 51.465 64.011 51.135V20.697C64.011 20.367 63.876 20.103 63.603 19.971L36.342 4.78799C36.069 4.65599 35.727 4.65599 35.523 4.78799L8.262 19.971C7.989 20.103 7.851 20.433 7.851 20.697V51.135C7.851 51.399 7.989 51.729 8.262 51.861L15.708 56.022C19.74 58.002 22.266 55.692 22.266 53.382V23.34C22.266 22.944 22.608 22.548 23.088 22.548H26.571C26.982 22.548 27.39 22.878 27.39 23.34V53.379C27.39 58.596 24.453 61.632 19.329 61.632C17.757 61.632 16.527 61.632 13.044 59.982L5.871 56.022C5.00665 55.5467 4.28485 54.8493 3.78014 54.0018C3.27543 53.1543 3.00611 52.1874 3 51.201V20.763C3 18.783 4.092 16.935 5.871 15.945L33.132 0.68999C34.0195 0.234848 35.0026 -0.00253296 36 -0.00253296C36.9974 -0.00253296 37.9805 0.234848 38.868 0.68999L66.132 15.942C67.908 16.932 69 18.78 69 20.76V51.198C69 53.178 67.908 55.026 66.132 56.019L38.871 71.268C37.9649 71.6608 36.9876 71.863 36 71.862M44.403 50.931C32.448 50.931 29.988 45.651 29.988 41.16C29.988 40.764 30.33 40.368 30.807 40.368H34.359C34.77 40.368 35.109 40.632 35.109 41.028C35.658 44.526 37.23 46.242 44.472 46.242C50.211 46.242 52.671 44.988 52.671 42.018C52.671 40.302 51.987 39.048 43.038 38.19C35.589 37.461 30.945 35.88 30.945 30.135C30.945 24.786 35.589 21.615 43.38 21.615C52.125 21.615 56.43 24.522 56.976 30.861C56.9699 31.0756 56.8976 31.2831 56.769 31.455C56.634 31.587 56.43 31.719 56.223 31.719H52.671C52.4984 31.7148 52.3319 31.6546 52.1966 31.5474C52.0613 31.4403 51.9646 31.292 51.921 31.125C51.099 27.495 48.981 26.304 43.38 26.304C37.092 26.304 36.342 28.416 36.342 30.003C36.342 31.917 37.23 32.511 45.702 33.567C54.105 34.623 58.068 36.141 58.068 41.817C57.999 47.631 53.082 50.931 44.403 50.931Z" fill="#181818"/>
</svg>
