<svg width="72" height="72" viewBox="0 0 72 72" fill="none" xmlns="http://www.w3.org/2000/svg">
<path d="M36 16.5C15.813 16.5 0 25.065 0 36C0 46.935 15.813 55.5 36 55.5C56.187 55.5 72 46.935 72 36C72 25.065 56.187 16.5 36 16.5ZM32.262 22.5H36.192L34.944 28.5H38.454C40.68 28.5 42.174 28.812 43.026 29.589C43.857 30.357 44.109 31.617 43.776 33.333L42.216 40.5H38.22L39.657 33.873C39.831 32.964 39.762 32.331 39.456 31.998C39.153 31.665 38.484 31.5 37.482 31.5H34.335L32.436 40.5H28.5L32.262 22.5ZM15 28.5H22.998C26.811 28.5 29.121 31.056 28.218 34.869C27.168 39.3 24.36 40.5 19.188 40.5H16.716L15.933 45H11.958L15 28.5ZM46.5 28.5H54.498C58.311 28.5 60.621 31.056 59.718 34.869C58.668 39.3 55.857 40.5 50.688 40.5H48.216L47.433 45H43.458L46.5 28.5ZM18.405 31.5L17.274 37.5H19.839C22.059 37.5 24.123 37.248 24.468 33.939C24.597 32.655 24.063 31.5 21.498 31.5H18.405ZM49.905 31.5L48.774 37.5H51.339C53.559 37.5 55.623 37.248 55.968 33.939C56.097 32.655 55.566 31.5 52.998 31.5H49.905Z" fill="#181818"/>
</svg>
