<svg width="72" height="72" viewBox="0 0 24 24" fill="none" xmlns="http://www.w3.org/2000/svg">
<g clip-path="url(#clip0_50_39)">
<path d="M12.094 4.63599C10.028 4.63599 8.412 4.83999 7.172 5.20599L7.263 5.12199C7.301 5.08499 7.213 5.05999 7.035 5.05399C6.501 5.03599 5.168 5.19699 4.045 5.75899C2.772 6.35799 -0.0730004 9.50399 -4.08036e-07 9.68999C0.0729996 9.87599 1.46 11.035 1.872 11.485C2.134 11.785 2.92 14.444 3.632 13.995C3.82 13.864 3.897 13.344 3.962 12.702C4.02 13.199 4.077 13.715 4.155 14.182C4.267 14.931 5.242 15.529 5.355 16.241C5.493 17.255 6.115 17.964 7.335 18.415C7.819 19.083 8.573 18.745 9.135 19.049C10.035 19.536 11.045 19.311 12.055 19.311C13.067 19.311 14.04 19.497 14.975 19.011C15.552 18.711 16.295 19.041 16.785 18.431C18.01 17.981 18.616 17.267 18.757 16.241C18.869 15.529 19.805 14.931 19.917 14.182C19.981 13.802 20.027 13.38 20.075 12.979C20.132 13.479 20.205 13.883 20.366 13.995C21.04 14.444 21.864 11.785 22.126 11.485C22.538 11.035 23.923 9.87699 23.998 9.68999C24.072 9.50199 21.19 6.35699 19.918 5.75799C18.794 5.19599 17.461 5.03499 16.927 5.05299C16.76 5.05799 16.682 5.08199 16.702 5.11499C15.528 4.80699 14.03 4.63499 12.092 4.63499M12.122 5.13499C14.325 5.13499 15.97 5.35999 17.132 5.74999C17.265 5.79499 17.37 5.84799 17.49 5.89699C18.18 6.61199 19.114 7.72699 19.504 9.01399C19.529 9.09399 19.544 9.17999 19.567 9.26199V9.26999C19.612 10.04 19.883 10.687 19.797 11.26C19.644 12.258 19.569 13.233 19.424 14.1L19.422 14.104V14.108C19.393 14.3 19.204 14.584 18.944 14.915C18.683 15.245 18.348 15.617 18.262 16.163V16.169L18.26 16.172C18.16 16.905 17.84 17.372 17.09 17.754C17.215 17.31 17.295 16.699 17.295 15.791C17.332 14.668 17.372 14.219 16.435 13.096C15.7249 12.1878 14.7488 11.5242 13.643 11.198C13.532 10.808 12.921 10.362 12.092 10.362C11.263 10.362 10.677 10.784 10.557 11.182C9.42946 11.5023 8.43285 12.1725 7.711 13.096C6.775 14.219 6.851 14.706 6.851 15.792C6.851 16.695 6.931 17.305 7.054 17.752C6.284 17.368 5.947 16.896 5.847 16.172V16.162C5.76 15.609 5.41 15.239 5.14 14.909C4.87 14.579 4.678 14.292 4.65 14.108L4.648 14.104V14.1C4.504 13.233 4.428 12.26 4.275 11.262V11.26C4.19 10.687 4.458 10.04 4.504 9.26999V9.28499C4.517 9.14199 4.521 9.04499 4.529 8.91499C4.889 7.75499 5.682 6.74199 6.334 6.03899C6.56881 5.92707 6.81066 5.83053 7.058 5.74999C8.25 5.35899 9.919 5.13499 12.122 5.13499ZM6.913 8.93999C6.4781 8.94316 6.0621 9.11822 5.75579 9.42697C5.44948 9.73571 5.27772 10.1531 5.278 10.588C5.278 10.8044 5.32063 11.0186 5.40347 11.2185C5.4863 11.4184 5.6077 11.6 5.76075 11.753C5.91379 11.9059 6.09547 12.0272 6.29541 12.1099C6.49535 12.1926 6.70963 12.2351 6.926 12.235C7.07533 12.2345 7.22394 12.2143 7.368 12.175C7.71667 11.799 8.087 11.4517 8.479 11.133C8.53987 10.9577 8.57162 10.7736 8.573 10.588C8.57313 10.3716 8.53063 10.1573 8.44792 9.95741C8.36521 9.75747 8.24391 9.57579 8.09096 9.42274C7.93801 9.2697 7.7564 9.14829 7.55651 9.06546C7.35662 8.98263 7.14237 8.93999 6.926 8.93999H6.913ZM17.21 8.93999C16.7747 8.94264 16.3582 9.11746 16.0515 9.42627C15.7448 9.73507 15.5727 10.1527 15.573 10.588C15.5735 10.8241 15.6246 11.0574 15.723 11.272C16.0363 11.536 16.3347 11.8187 16.618 12.12C16.8107 12.1947 17.0154 12.2337 17.222 12.235C17.6586 12.2347 18.0773 12.0611 18.386 11.7522C18.6946 11.4434 18.868 11.0246 18.868 10.588C18.8681 10.3717 18.8257 10.1575 18.743 9.95764C18.6604 9.75777 18.5392 9.57613 18.3863 9.4231C18.2335 9.27007 18.052 9.14864 17.8522 9.06575C17.6524 8.98286 17.4383 8.94013 17.222 8.93999H17.21ZM7.339 9.42599C7.39301 9.42599 7.44649 9.43666 7.49636 9.45739C7.54624 9.47812 7.59152 9.5085 7.62962 9.54679C7.66772 9.58507 7.69788 9.63051 7.71837 9.68048C7.73885 9.73045 7.74926 9.78398 7.749 9.83799C7.74926 9.892 7.73885 9.94553 7.71837 9.99551C7.69788 10.0455 7.66772 10.0909 7.62962 10.1292C7.59152 10.1675 7.54624 10.1979 7.49636 10.2186C7.44649 10.2393 7.39301 10.25 7.339 10.25C7.28474 10.2504 7.23094 10.24 7.18071 10.2195C7.13049 10.1989 7.08485 10.1686 7.04643 10.1303C7.00802 10.0919 6.97759 10.0464 6.95691 9.99621C6.93624 9.94603 6.92573 9.89226 6.926 9.83799C6.92573 9.78373 6.93624 9.72995 6.95691 9.67978C6.97759 9.62961 7.00802 9.58404 7.04643 9.54572C7.08485 9.50739 7.13049 9.47708 7.18071 9.45653C7.23094 9.43597 7.28474 9.4256 7.339 9.42599ZM16.809 9.42599C16.8633 9.4256 16.9171 9.43597 16.9673 9.45653C17.0175 9.47708 17.0631 9.50739 17.1016 9.54572C17.14 9.58404 17.1704 9.62961 17.1911 9.67978C17.2118 9.72995 17.2223 9.78373 17.222 9.83799C17.2223 9.89217 17.2118 9.94587 17.1912 9.99597C17.1706 10.0461 17.1402 10.0916 17.1019 10.1299C17.0636 10.1682 17.0181 10.1986 16.968 10.2192C16.9179 10.2398 16.8642 10.2503 16.81 10.25C16.7558 10.2503 16.7021 10.2398 16.652 10.2192C16.6019 10.1986 16.5564 10.1682 16.5181 10.1299C16.4798 10.0916 16.4494 10.0461 16.4288 9.99597C16.4082 9.94587 16.3977 9.89217 16.398 9.83799C16.3977 9.78382 16.4082 9.73012 16.4288 9.68002C16.4494 9.62991 16.4798 9.58439 16.5181 9.54608C16.5564 9.50777 16.6019 9.47743 16.652 9.45682C16.7021 9.43621 16.7548 9.42573 16.809 9.42599ZM11.701 10.912C11.7115 10.9114 11.7215 10.9127 11.731 10.916C11.7687 10.9281 11.7956 10.9695 11.8057 11.0313C11.8158 11.0932 11.8084 11.1703 11.785 11.246C11.7734 11.2836 11.7582 11.3198 11.7402 11.3524C11.7223 11.385 11.7019 11.4134 11.6804 11.4359C11.6589 11.4585 11.6365 11.4748 11.6147 11.4839C11.5928 11.493 11.5718 11.4947 11.553 11.489C11.5156 11.4765 11.489 11.4348 11.4791 11.3731C11.4692 11.3113 11.4767 11.2344 11.5 11.159C11.5202 11.0929 11.5513 11.0323 11.5879 10.9873C11.6245 10.9423 11.6645 10.9157 11.701 10.912ZM12.373 10.934C12.4106 10.9319 12.4523 10.9567 12.4902 11.0036C12.528 11.0505 12.5593 11.1162 12.578 11.188C12.5979 11.265 12.6016 11.3427 12.5885 11.4042C12.5754 11.4657 12.5464 11.5059 12.508 11.516C12.4696 11.526 12.4248 11.505 12.3836 11.4578C12.3423 11.4106 12.308 11.3409 12.288 11.264C12.2681 11.187 12.2644 11.1093 12.2775 11.0478C12.2906 10.9863 12.3196 10.9461 12.358 10.936C12.3629 10.9348 12.3679 10.9342 12.373 10.934ZM12.057 11.41C12.057 11.41 12.092 11.636 12.242 11.711C12.392 11.786 13.104 11.561 13.104 11.561C12.767 11.823 12.131 11.824 12.131 11.899V12.272C12.131 12.68 12.157 13.733 12.1 13.957C12.923 13.962 14.19 15.083 14.19 16.465V16.54C14.152 15.192 12.58 14.106 12.094 14.106C11.607 14.106 10.034 15.154 9.996 16.54V16.465C9.996 15.103 11.229 13.995 12.053 13.959C11.983 13.408 11.98 12.822 11.98 12.272V11.9C11.7671 11.8058 11.5479 11.7266 11.324 11.663C11.509 11.696 11.695 11.713 11.869 11.713C12.019 11.637 12.057 11.411 12.057 11.411M9.015 12.76H9.023C9.0427 12.76 9.0622 12.7639 9.0804 12.7714C9.0986 12.779 9.11514 12.79 9.12907 12.8039C9.143 12.8179 9.15404 12.8344 9.16158 12.8526C9.16912 12.8708 9.173 12.8903 9.173 12.91C9.17313 12.9298 9.16935 12.9494 9.16187 12.9677C9.15439 12.986 9.14336 13.0027 9.12942 13.0167C9.11548 13.0307 9.0989 13.0419 9.08063 13.0495C9.06237 13.0571 9.04278 13.061 9.023 13.061C8.98322 13.061 8.94506 13.0452 8.91693 13.0171C8.8888 12.9889 8.873 12.9508 8.873 12.911C8.87295 12.8726 8.88765 12.8356 8.91407 12.8077C8.94049 12.7797 8.97662 12.762 9.015 12.76ZM10.139 12.761H10.146C10.1858 12.761 10.2239 12.7768 10.2521 12.8049C10.2802 12.8331 10.296 12.8712 10.296 12.911C10.2961 12.9308 10.2923 12.9504 10.2849 12.9687C10.2774 12.987 10.2664 13.0037 10.2524 13.0177C10.2385 13.0317 10.2219 13.0429 10.2036 13.0505C10.1854 13.0581 10.1658 13.062 10.146 13.062C10.1062 13.062 10.0681 13.0462 10.0399 13.0181C10.0118 12.9899 9.996 12.9518 9.996 12.912C9.99596 12.8734 10.0108 12.8363 10.0374 12.8083C10.0641 12.7804 10.1004 12.7638 10.139 12.762M13.809 12.762H13.816C13.8558 12.762 13.8939 12.7778 13.9221 12.8059C13.9502 12.8341 13.966 12.8722 13.966 12.912C13.9661 12.9318 13.9623 12.9514 13.9549 12.9697C13.9474 12.988 13.9364 13.0047 13.9224 13.0187C13.9085 13.0327 13.8919 13.0439 13.8736 13.0515C13.8554 13.0591 13.8358 13.063 13.816 13.063C13.7963 13.063 13.7768 13.0591 13.7586 13.0516C13.7404 13.044 13.7239 13.033 13.7099 13.0191C13.696 13.0051 13.685 12.9886 13.6774 12.9704C13.6699 12.9522 13.666 12.9327 13.666 12.913C13.666 12.8744 13.6808 12.8373 13.7074 12.8093C13.7341 12.7814 13.7704 12.7638 13.809 12.762ZM14.932 12.763H14.94C14.9798 12.763 15.0179 12.7788 15.0461 12.8069C15.0742 12.8351 15.09 12.8732 15.09 12.913C15.0901 12.9328 15.0863 12.9524 15.0789 12.9707C15.0714 12.989 15.0604 13.0057 15.0464 13.0197C15.0325 13.0337 15.0159 13.0449 14.9976 13.0525C14.9794 13.0601 14.9598 13.064 14.94 13.064C14.9002 13.064 14.8621 13.0482 14.8339 13.0201C14.8058 12.9919 14.79 12.9538 14.79 12.914C14.7899 12.8756 14.8046 12.8386 14.8311 12.8107C14.8575 12.7827 14.8936 12.766 14.932 12.764M9.279 13.663H9.287C9.32643 13.6635 9.36408 13.6796 9.39178 13.7076C9.41947 13.7357 9.435 13.7736 9.435 13.813C9.435 13.8524 9.41947 13.8903 9.39178 13.9184C9.36408 13.9464 9.32643 13.9625 9.287 13.963C9.24722 13.963 9.20906 13.9472 9.18093 13.9191C9.1528 13.8909 9.137 13.8528 9.137 13.813C9.13695 13.7746 9.15165 13.7376 9.17807 13.7097C9.20449 13.6817 9.24062 13.665 9.279 13.663ZM14.67 13.663H14.676C14.7158 13.663 14.7539 13.6788 14.7821 13.7069C14.8102 13.7351 14.826 13.7732 14.826 13.813C14.826 13.8528 14.8102 13.8909 14.7821 13.9191C14.7539 13.9472 14.7158 13.963 14.676 13.963C14.6364 13.9627 14.5985 13.9468 14.5706 13.9187C14.5427 13.8906 14.527 13.8526 14.527 13.813C14.527 13.7744 14.5418 13.7373 14.5684 13.7093C14.5951 13.6814 14.6314 13.6648 14.67 13.663Z" fill="black"/>
</g>
<defs>
<clipPath id="clip0_50_39">
<rect width="24" height="24" fill="white"/>
</clipPath>
</defs>
</svg>
