<svg width="72" height="72" viewBox="0 0 72 72" fill="none" xmlns="http://www.w3.org/2000/svg">
<path d="M36 6C32.0603 6 28.1593 6.77597 24.5195 8.28361C20.8797 9.79126 17.5726 12.001 14.7868 14.7868C9.16071 20.4129 6 28.0435 6 36C6 43.9565 9.16071 51.5871 14.7868 57.2132C17.5726 59.999 20.8797 62.2087 24.5195 63.7164C28.1593 65.224 32.0603 66 36 66C43.9565 66 51.5871 62.8393 57.2132 57.2132C62.8393 51.5871 66 43.9565 66 36C66 32.0603 65.224 28.1593 63.7164 24.5195C62.2087 20.8797 59.999 17.5726 57.2132 14.7868C54.4274 12.001 51.1203 9.79126 47.4805 8.28361C43.8407 6.77597 39.9397 6 36 6ZM49.11 17.1C52.17 17.01 54.45 18.39 54.63 20.52C54.66 21.45 54.12 23.25 52.26 23.31C50.85 23.37 49.89 22.5 49.86 21.27C49.83 20.79 50.64 19.26 50.64 18.99C50.61 18.18 49.41 18.15 49.08 18.18C44.58 18.33 43.38 24.39 42.42 29.34L42 31.95C44.52 32.34 46.38 31.86 47.4 31.2C48.84 30.27 46.98 29.31 47.22 28.23C47.46 27.12 48.45 26.61 49.23 26.58C50.34 26.55 51.12 27.69 51.09 28.86C51 30.78 48.51 33.42 43.5 33.3C42.84 33.3 42.27 33.24 41.73 33.18C39.9 42.48 38.76 48 34.68 52.74C31.17 56.91 27.6 57.54 26.01 57.6C23.01 57.72 21 56.13 21 54C20.91 51.96 22.71 50.82 23.91 50.79C25.5 50.73 26.61 51.9 26.64 53.22C26.7 54.33 26.1 54.69 25.71 54.9C25.5 55.11 25.05 55.35 25.08 55.8C25.08 56.01 25.29 56.46 25.95 56.43C27.21 56.4 28.02 55.77 28.62 55.35C31.5 52.95 32.64 48.72 34.11 41.04C34.89 36.69 35.46 33.9 36.3 31.14C34.26 29.61 33 27.69 30.27 27C28.38 26.43 27.24 26.88 26.43 27.9C25.5 29.13 25.8 30.69 26.7 31.62C30.15 35.46 31.17 37.14 30.78 39.42C30.18 43.05 25.86 45.81 20.76 44.25C16.41 42.9 15.6 39.84 16.11 38.13C16.59 36.66 17.76 36.36 18.93 36.72C20.19 37.11 20.67 38.61 20.31 39.78C20.25 39.9 19.65 41.01 19.5 41.37C19.23 42.3 20.49 42.93 21.36 43.2C23.31 43.8 25.2 42.78 25.65 41.19C26.1 39.75 25.2 38.73 24.81 38.34C22.14 35.4 20.28 32.79 21.18 29.85C21.54 28.74 22.26 27.54 23.34 26.73C25.59 25.08 28.05 24.78 30.36 25.5C33.39 26.31 34.83 28.32 36.72 29.85C37.77 26.79 39.24 23.76 41.43 21.21C43.41 18.9 46.05 17.22 49.11 17.1Z" fill="#181818"/>
</svg>
