<svg width="87" height="24" viewBox="0 0 87 24" fill="none" xmlns="http://www.w3.org/2000/svg">
<g clip-path="url(#clip0_14_1064)">
<g clip-path="url(#clip1_14_1064)">
<path d="M83.0102 9C82.884 9 82.7773 8.89722 82.7468 8.75952C82.6494 8.32064 82.463 7.8539 82.1875 7.35939C81.8611 6.76562 81.3958 6.21486 80.7917 5.70704C80.2662 5.26023 79.7407 4.95554 79.2153 4.793C79.0908 4.75452 79 4.63037 79 4.48516C79 4.3428 79.0873 4.22008 79.209 4.18099C79.7242 4.01551 80.2205 3.74684 80.6979 3.375C81.2465 2.94531 81.7049 2.42969 82.0729 1.82813C82.3985 1.29224 82.622 0.762246 82.7435 0.238143C82.7753 0.100843 82.8827 0 83.0088 0C83.1364 0 83.2446 0.103076 83.2756 0.242249C83.3457 0.556443 83.4552 0.87804 83.6042 1.20703C83.7917 1.61328 84.0312 2.0039 84.3229 2.37891C84.6215 2.74609 84.9549 3.07813 85.3229 3.375C85.8039 3.75854 86.2928 4.028 86.7898 4.18338C86.9117 4.22149 87 4.3436 87 4.48593C87 4.63041 86.909 4.75353 86.7852 4.79174C86.4702 4.88889 86.1459 5.04558 85.8125 5.26172C85.4097 5.52735 85.0347 5.84375 84.6875 6.21095C84.3403 6.57032 84.0556 6.94922 83.8333 7.34765C83.5573 7.84319 83.3707 8.31353 83.2735 8.75876C83.2433 8.89686 83.1365 9 83.0102 9Z" fill="black"/>
</g>
<path d="M3.9375 19V4.45455H10.2443C11.3523 4.45455 12.2827 4.60369 13.0355 4.90199C13.7931 5.20028 14.3636 5.62169 14.7472 6.16619C15.1354 6.7107 15.3295 7.35227 15.3295 8.09091C15.3295 8.62595 15.2112 9.11364 14.9744 9.55398C14.7424 9.99432 14.4157 10.3636 13.9943 10.6619C13.5729 10.9555 13.0805 11.1591 12.517 11.2727V11.4148C13.142 11.4384 13.7102 11.5971 14.2216 11.8906C14.733 12.1795 15.1402 12.5795 15.4432 13.0909C15.7462 13.5975 15.8977 14.1941 15.8977 14.8807C15.8977 15.6761 15.6894 16.384 15.2727 17.0043C14.8608 17.6245 14.2737 18.1122 13.5114 18.4673C12.7491 18.8224 11.84 19 10.7841 19H3.9375ZM7.88636 15.8466H9.73295C10.3958 15.8466 10.893 15.7235 11.2244 15.4773C11.5559 15.2263 11.7216 14.857 11.7216 14.3693C11.7216 14.0284 11.6435 13.7396 11.4872 13.5028C11.331 13.2661 11.1084 13.0862 10.8196 12.9631C10.5355 12.84 10.1922 12.7784 9.78977 12.7784H7.88636V15.8466ZM7.88636 10.3352H9.50568C9.85133 10.3352 10.1567 10.2808 10.4219 10.1719C10.687 10.063 10.893 9.90672 11.0398 9.70312C11.1913 9.49479 11.267 9.24148 11.267 8.94318C11.267 8.49337 11.1061 8.15009 10.7841 7.91335C10.4621 7.67188 10.0549 7.55114 9.5625 7.55114H7.88636V10.3352ZM21.2741 4.45455V19H17.3537V4.45455H21.2741ZM26.3114 19.1705C25.6154 19.1705 24.9999 19.0568 24.4648 18.8295C23.9345 18.5975 23.5179 18.2472 23.2148 17.7784C22.9118 17.3097 22.7603 16.7131 22.7603 15.9886C22.7603 15.392 22.8621 14.883 23.0657 14.4616C23.2693 14.0355 23.5534 13.6875 23.918 13.4176C24.2826 13.1477 24.7063 12.9418 25.1893 12.7997C25.677 12.6577 26.2025 12.5653 26.766 12.5227C27.3768 12.4754 27.8668 12.4186 28.2362 12.3523C28.6102 12.2812 28.8801 12.1842 29.0458 12.0611C29.2115 11.9332 29.2944 11.7652 29.2944 11.5568V11.5284C29.2944 11.2443 29.1855 11.0265 28.9677 10.875C28.7499 10.7235 28.4705 10.6477 28.1296 10.6477C27.7556 10.6477 27.4502 10.7306 27.2134 10.8963C26.9814 11.0573 26.8417 11.3059 26.7944 11.642H23.1864C23.2338 10.9792 23.4445 10.3684 23.8185 9.80966C24.1973 9.24621 24.7489 8.7964 25.4734 8.46023C26.1978 8.11932 27.1022 7.94886 28.1864 7.94886C28.9677 7.94886 29.6684 8.04119 30.2887 8.22585C30.909 8.40578 31.4369 8.65909 31.8725 8.9858C32.3081 9.30777 32.6396 9.68655 32.8668 10.1222C33.0988 10.553 33.2148 11.0218 33.2148 11.5284V19H29.5501V17.4659H29.4648C29.247 17.8731 28.9819 18.2022 28.6694 18.4531C28.3616 18.7041 28.0089 18.8864 27.6112 19C27.2182 19.1136 26.7849 19.1705 26.3114 19.1705ZM27.5898 16.6989C27.8881 16.6989 28.1675 16.6373 28.4279 16.5142C28.6931 16.3911 28.9085 16.2135 29.0742 15.9815C29.2399 15.7495 29.3228 15.4678 29.3228 15.1364V14.2273C29.2186 14.2699 29.1074 14.3101 28.989 14.348C28.8754 14.3859 28.7522 14.4214 28.6197 14.4545C28.4918 14.4877 28.3545 14.5185 28.2077 14.5469C28.0657 14.5753 27.9165 14.6013 27.7603 14.625C27.4573 14.6723 27.2087 14.7505 27.0146 14.8594C26.8252 14.9635 26.6831 15.0938 26.5884 15.25C26.4985 15.4015 26.4535 15.572 26.4535 15.7614C26.4535 16.0644 26.56 16.2964 26.7731 16.4574C26.9862 16.6184 27.2584 16.6989 27.5898 16.6989ZM39.0085 12.8636V19H35.0881V8.09091H38.8097V10.1648H38.9233C39.16 9.47348 39.5767 8.93134 40.1733 8.53835C40.7746 8.14536 41.4754 7.94886 42.2756 7.94886C43.0473 7.94886 43.7173 8.12642 44.2855 8.48153C44.8584 8.83191 45.3011 9.31487 45.6136 9.9304C45.9309 10.5459 46.0871 11.2491 46.0824 12.0398V19H42.1619V12.8636C42.1667 12.3239 42.0294 11.9001 41.75 11.5923C41.4754 11.2846 41.0919 11.1307 40.5994 11.1307C40.2775 11.1307 39.9957 11.2017 39.7543 11.3438C39.5175 11.4811 39.3352 11.6799 39.2074 11.9403C39.0795 12.196 39.0133 12.5038 39.0085 12.8636ZM53.2734 19.1989C52.0897 19.1989 51.0765 18.9645 50.2337 18.4957C49.3909 18.0223 48.7446 17.3641 48.2947 16.5213C47.8449 15.6738 47.62 14.6913 47.62 13.5739C47.62 12.4564 47.8449 11.4763 48.2947 10.6335C48.7446 9.78598 49.3909 9.12784 50.2337 8.65909C51.0765 8.18561 52.0897 7.94886 53.2734 7.94886C54.3435 7.94886 55.2692 8.14299 56.0504 8.53125C56.8364 8.91477 57.4448 9.45928 57.8757 10.1648C58.3066 10.8655 58.5244 11.6894 58.5291 12.6364H54.8928C54.8407 12.0634 54.675 11.6278 54.3956 11.3295C54.121 11.0265 53.7659 10.875 53.3303 10.875C52.9893 10.875 52.6911 10.9744 52.4354 11.1733C52.1797 11.3674 51.9808 11.6634 51.8388 12.0611C51.6967 12.4541 51.6257 12.9489 51.6257 13.5455C51.6257 14.142 51.6967 14.6392 51.8388 15.0369C51.9808 15.4299 52.1797 15.7259 52.4354 15.9247C52.6911 16.1188 52.9893 16.2159 53.3303 16.2159C53.6191 16.2159 53.8748 16.1496 54.0973 16.017C54.3198 15.8797 54.4998 15.6809 54.6371 15.4205C54.7791 15.1553 54.8643 14.8333 54.8928 14.4545H58.5291C58.5149 15.4157 58.2947 16.2538 57.8686 16.9688C57.4425 17.679 56.8388 18.2282 56.0575 18.6165C55.281 19.0047 54.353 19.1989 53.2734 19.1989ZM64.0671 12.8636V19H60.1467V4.45455H63.9251V10.1648H64.0387C64.2849 9.46875 64.6945 8.92661 65.2674 8.53835C65.8403 8.14536 66.5292 7.94886 67.3342 7.94886C68.1059 7.94886 68.7759 8.12405 69.3441 8.47443C69.917 8.82481 70.3597 9.30777 70.6722 9.9233C70.9895 10.5388 71.1457 11.2443 71.141 12.0398V19H67.2205V12.8636C67.2253 12.3239 67.0903 11.9001 66.8157 11.5923C66.5458 11.2846 66.1599 11.1307 65.658 11.1307C65.3408 11.1307 65.0614 11.2017 64.82 11.3438C64.5832 11.4811 64.3986 11.6799 64.266 11.9403C64.1381 12.196 64.0719 12.5038 64.0671 12.8636ZM78.3036 19.1989C77.1388 19.1989 76.1351 18.9763 75.2923 18.5312C74.4542 18.0814 73.8079 17.4375 73.3533 16.5994C72.9035 15.7566 72.6786 14.7481 72.6786 13.5739C72.6786 12.447 72.9059 11.4621 73.3604 10.6193C73.815 9.77651 74.4566 9.12074 75.2852 8.65199C76.1138 8.18324 77.0915 7.94886 78.2184 7.94886C79.0423 7.94886 79.788 8.0767 80.4556 8.33239C81.1232 8.58807 81.6938 8.95975 82.1673 9.44744C82.6407 9.9304 83.0053 10.5175 83.261 11.2088C83.5167 11.9001 83.6445 12.679 83.6445 13.5455V14.4545H73.9002V12.2955H80.0366C80.0318 11.983 79.9513 11.7083 79.7951 11.4716C79.6436 11.2301 79.4376 11.0431 79.1772 10.9105C78.9215 10.7732 78.6303 10.7045 78.3036 10.7045C77.9864 10.7045 77.6952 10.7732 77.43 10.9105C77.1649 11.0431 76.9518 11.2277 76.7908 11.4645C76.6346 11.7012 76.5517 11.9782 76.5423 12.2955V14.625C76.5423 14.9754 76.6156 15.2879 76.7624 15.5625C76.9092 15.8371 77.1199 16.0526 77.3945 16.2088C77.6692 16.3651 78.0006 16.4432 78.3888 16.4432C78.6587 16.4432 78.9049 16.4053 79.1275 16.3295C79.3548 16.2538 79.5489 16.1449 79.7099 16.0028C79.8709 15.8561 79.9892 15.6809 80.065 15.4773H83.6445C83.5214 16.2348 83.2302 16.893 82.771 17.4517C82.3117 18.0057 81.7032 18.4366 80.9457 18.7443C80.1928 19.0473 79.3121 19.1989 78.3036 19.1989Z" fill="black"/>
</g>
<defs>
<clipPath id="clip0_14_1064">
<rect width="87" height="23.3" fill="white"/>
</clipPath>
<clipPath id="clip1_14_1064">
<rect width="8" height="9" fill="white" transform="translate(79)"/>
</clipPath>
</defs>
</svg>
