<svg width="72" height="72" viewBox="0 0 72 72" fill="none" xmlns="http://www.w3.org/2000/svg">
<path d="M38.82 36L53.4 21.42C53.7277 21.0374 53.8989 20.5452 53.8794 20.0419C53.86 19.5385 53.6513 19.0611 53.2951 18.7049C52.9389 18.3487 52.4615 18.14 51.9581 18.1206C51.4548 18.1011 50.9626 18.2724 50.58 18.6L36 33.18L21.42 18.58C21.0374 18.2524 20.5453 18.0811 20.0419 18.1006C19.5385 18.12 19.0611 18.3287 18.7049 18.6849C18.3487 19.0411 18.14 19.5185 18.1206 20.0219C18.1011 20.5252 18.2724 21.0174 18.6 21.4L33.18 36L18.58 50.58C18.3706 50.7593 18.2006 50.9799 18.0806 51.2281C17.9605 51.4762 17.893 51.7465 17.8824 52.0219C17.8718 52.2973 17.9182 52.572 18.0187 52.8287C18.1193 53.0853 18.2718 53.3184 18.4667 53.5133C18.6616 53.7082 18.8947 53.8607 19.1514 53.9613C19.408 54.0618 19.6827 54.1082 19.9581 54.0976C20.2336 54.087 20.5038 54.0195 20.7519 53.8995C21.0001 53.7794 21.2207 53.6094 21.4 53.4L36 38.82L50.58 53.4C50.9626 53.7277 51.4548 53.8989 51.9581 53.8794C52.4615 53.86 52.9389 53.6513 53.2951 53.2951C53.6513 52.9389 53.86 52.4615 53.8794 51.9581C53.8989 51.4548 53.7277 50.9626 53.4 50.58L38.82 36Z" fill="black"/>
</svg>
