<svg width="72" height="72" viewBox="0 0 72 72" fill="none" xmlns="http://www.w3.org/2000/svg">
<path d="M34.0762 11.2815C30.8947 11.1128 27.3195 11.601 23.823 12.8138C18.2655 14.742 12.2535 17.775 7.93124 21.726C2.79674 26.4285 1.97324 30.5235 2.31074 32.2335C3.51224 38.3085 12.0757 42.2685 15.5047 45.198C15.336 45.288 15.1785 45.369 15.03 45.4523C13.311 46.287 6.93224 49.5675 5.29874 53.0955C3.45374 57.096 5.60474 59.958 7.01774 60.3495C11.4277 61.5465 15.7882 59.4563 18.2115 55.9215C20.637 52.3845 20.3445 47.7675 19.224 45.6615C19.215 45.6323 19.1925 45.612 19.1812 45.5805C19.6245 45.3218 20.0767 45.063 20.5312 44.802C21.4065 44.2958 22.2615 43.8345 23.0107 43.4295C22.5877 44.5455 22.2817 45.8888 22.122 47.826C21.933 50.094 22.8915 53.028 24.1357 54.1845C24.6847 54.6908 25.3462 54.702 25.7557 54.702C27.2115 54.702 27.8662 53.5275 28.5907 52.1235C29.4862 50.4113 30.2782 48.4223 30.2782 48.4223C30.2782 48.4223 29.2882 53.802 32.0017 53.802C32.9917 53.802 33.9817 52.5555 34.4272 51.9165V51.9255C34.4272 51.9255 34.443 51.885 34.497 51.8018C34.6027 51.6465 34.6545 51.5565 34.6545 51.5565V51.525C35.055 50.8545 35.9347 49.32 37.2532 46.7843C38.961 43.506 40.5922 39.411 40.5922 39.411C40.7497 40.311 40.968 41.1975 41.247 42.0683C41.5417 43.047 42.1672 44.1203 42.6622 45.162C42.2617 45.6975 42.0165 46.0058 42.0165 46.0058C42.0165 46.0148 42.0232 46.0238 42.03 46.0283C41.7127 46.44 41.3527 46.8833 40.9837 47.3153C39.6337 48.8835 38.0295 50.6813 37.8202 51.1965C37.566 51.804 37.629 52.254 38.1127 52.6073C38.4727 52.875 39.1095 52.9155 39.771 52.866C40.6225 52.8223 41.4602 52.6336 42.2482 52.308C43.0046 52.0449 43.7208 51.6784 44.3767 51.219C45.6952 50.2695 46.4985 48.906 46.4242 47.1128C46.3792 46.1228 46.0507 45.1328 45.6502 44.2035C45.7672 44.0393 45.8977 43.866 46.0102 43.6905C47.3818 41.6925 48.6183 39.6051 49.7115 37.4423C49.869 38.3423 50.0872 39.2288 50.364 40.0995C50.6205 40.9343 51.1155 41.8523 51.57 42.75C49.6102 44.307 48.393 46.1115 47.97 47.2973C47.1892 49.4933 47.8057 50.481 48.9555 50.7083C49.473 50.8118 50.2087 50.5778 50.7555 50.3528C51.5722 50.0873 52.3372 49.7003 53.0325 49.2053C54.351 48.2558 55.629 46.9283 55.5435 45.1238C55.512 44.3093 55.2825 43.4925 54.9765 42.7095C56.6325 42.03 58.779 41.6588 61.524 41.967C67.3965 42.6375 68.5462 46.2263 68.3257 47.7203C68.1052 49.2165 66.87 50.0513 66.4582 50.2988C66.0465 50.5463 65.9227 50.6408 65.9542 50.8275C66.006 51.0953 66.1927 51.084 66.5415 51.021C67.0275 50.9378 69.6195 49.806 69.7365 47.0295C69.9052 43.5263 66.4627 39.672 60.3585 39.7013H60.3495C58.2322 39.7013 56.142 40.176 54.2407 41.094C53.6175 39.8678 52.974 38.7945 52.8705 37.989C52.7445 37.053 52.6095 36.4973 52.758 35.3858C52.9042 34.272 53.568 32.6925 53.5567 32.5778C53.5455 32.4653 53.4082 31.8983 52.0492 31.887C50.6902 31.8758 49.5157 32.1435 49.3807 32.4945C49.14 33.1335 48.9532 33.7905 48.8227 34.461C48.5797 35.667 46.1025 39.9803 44.7007 42.228C44.2372 41.3505 43.848 40.5788 43.7647 39.96C43.6387 39.0218 43.4992 38.466 43.6455 37.3545C43.794 36.2408 44.4622 34.6613 44.451 34.5465C44.4397 34.434 44.3025 33.867 42.9435 33.8558C41.5845 33.8445 40.4077 34.1123 40.2705 34.4633C40.1355 34.812 39.9847 35.6355 39.7125 36.4298C39.438 37.224 36.1395 44.4038 35.2755 46.269C34.928 47.0209 34.5611 47.7636 34.1752 48.4965C34.1325 48.582 34.1032 48.6315 34.0852 48.6743C34.1145 48.6225 34.137 48.5708 34.137 48.591C33.9052 49.0343 33.768 49.2795 33.768 49.2795V49.2885C33.588 49.6193 33.3855 49.923 33.2932 49.923C33.2302 49.923 33.0907 49.0545 33.3247 47.8688C33.8197 45.3735 34.9897 41.4968 34.9807 41.3618C34.9695 41.2898 35.1967 40.6193 34.2067 40.2593C33.246 39.9195 32.9017 40.4865 32.8185 40.4865C32.733 40.4865 32.67 40.6935 32.67 40.6935C32.67 40.6935 33.7297 36.3218 30.6225 36.3218C28.6785 36.3218 25.9785 38.403 24.6532 40.2885C23.8207 40.7318 22.0162 41.6925 20.1172 42.714L17.9392 43.8885C17.8875 43.8368 17.8425 43.785 17.7885 43.7333C14.013 39.7958 7.04474 37.0103 7.33949 31.7183C7.44524 29.7923 8.13374 24.732 20.7427 18.585C31.0792 13.554 39.3412 14.9333 40.7632 18.0045C42.8107 22.3875 36.3442 30.546 25.6117 31.7205C21.5212 32.1638 19.6357 30.4358 19.098 29.8575C18.54 29.25 18.4522 29.2163 18.243 29.3288C17.892 29.5133 18.1147 30.051 18.243 30.3705C18.558 31.185 19.9687 32.4608 22.2142 33.183C24.1875 33.813 28.7167 34.3418 34.5195 32.148C41.0355 29.691 46.0125 23.022 44.5252 17.3003C43.5802 13.6665 39.375 11.5605 34.0762 11.2815ZM30.6157 38.9003C30.7822 38.9115 30.9037 38.9745 30.9735 39.0893C31.3425 39.699 29.691 44.1878 29.268 45.198C28.593 46.818 27.1665 50.9445 26.3002 50.7263C25.5622 50.5418 25.1077 47.3963 26.1517 44.3003C26.6782 42.7433 27.7965 40.8893 28.4625 40.167C29.2612 39.2918 30.123 38.862 30.6157 38.9003ZM52.5307 43.9898C52.6567 44.3498 52.722 44.7278 52.731 45.1058C52.7197 47.4278 51.021 48.2918 50.0017 48.6518C49.7902 48.5078 49.8172 48.0218 50.5237 46.5143C50.7982 45.9293 51.4327 44.9393 52.5307 43.9898ZM17.1112 46.548C17.9865 49.6823 17.1427 52.4453 15.0975 54.6255C13.158 56.6955 10.4355 57.4808 9.26549 56.8215C8.00999 56.1083 8.50724 53.055 10.9012 50.8455C12.357 49.5045 14.2357 48.267 15.48 47.5043C15.7657 47.34 16.173 47.0925 16.6792 46.7933C16.7206 46.7676 16.7635 46.7443 16.8075 46.7235C16.902 46.6628 17.0055 46.611 17.1112 46.548ZM43.6095 46.908C43.6095 46.9598 43.623 47.0138 43.623 47.0745C43.6095 48.9195 41.7915 50.166 40.968 50.661H40.977V50.6655C40.6912 50.8095 40.4257 50.8995 40.302 50.8275C40.2052 50.7758 40.419 50.58 40.419 50.58C40.419 50.58 41.8837 49.041 42.462 48.339C42.7995 47.9273 43.1887 47.4435 43.6095 46.908Z" fill="#181818"/>
</svg>
