<svg width="24" height="24" viewBox="0 0 24 24" fill="none" xmlns="http://www.w3.org/2000/svg">
<path d="M6.315 6.17605C6.065 5.53805 6.075 4.80905 6.186 4.14205C6.95019 4.37103 7.6679 4.73326 8.306 5.21205C8.586 5.42605 8.953 5.49505 9.295 5.39205C10.1726 5.12949 11.084 4.99741 12 5.00005C12.961 5.00005 13.874 5.14005 14.703 5.39105C15.045 5.49505 15.412 5.42505 15.691 5.21105C16.3288 4.73237 17.0462 4.37013 17.81 4.14105C17.921 4.80805 17.93 5.53705 17.682 6.17405C17.532 6.55805 17.607 7.00005 17.89 7.31405C18.614 8.11705 19 9.04005 19 10.0001C19 12.1141 17.03 14.1871 13.866 14.8181C13.074 14.9761 12.765 15.9731 13.371 16.5441C13.76 16.9101 14 17.4261 14 18.0001V21.0001C14 21.2653 14.1054 21.5196 14.2929 21.7072C14.4804 21.8947 14.7348 22.0001 15 22.0001C15.2652 22.0001 15.5196 21.8947 15.7071 21.7072C15.8946 21.5196 16 21.2653 16 21.0001V18.0001C16 17.4301 15.88 16.8881 15.666 16.3971C18.683 15.3501 21 12.9931 21 10.0001C21 8.65305 20.516 7.41505 19.713 6.37805C19.923 5.55805 19.904 4.73205 19.824 4.09805C19.753 3.53005 19.654 2.78605 19.254 2.34205C18.659 1.68305 17.674 2.07105 16.974 2.31005C16.2231 2.56414 15.5087 2.91546 14.849 3.35505C13.918 3.11746 12.9608 2.99819 12 3.00005C11.006 3.00005 10.047 3.12505 9.149 3.35605C8.48932 2.91645 7.77491 2.56513 7.024 2.31105C6.324 2.07105 5.338 1.68305 4.743 2.34205C4.335 2.79405 4.25 3.47905 4.177 4.06105L4.172 4.09905C4.092 4.73405 4.074 5.56105 4.284 6.38205C3.484 7.41805 3 8.65405 3 10.0001C3 12.9921 5.317 15.3501 8.334 16.3971C8.11563 16.8963 8.00195 17.4351 8 17.9801L7.832 18.0141C7.115 18.1131 6.656 18.0241 6.344 17.8921C5.584 17.5701 5.192 16.7591 4.714 16.1391C4.416 15.7541 3.982 15.2731 3.316 15.0511C3.19138 15.0096 3.0598 14.993 2.92878 15.0024C2.79776 15.0117 2.66987 15.0468 2.5524 15.1056C2.31517 15.2243 2.13481 15.4324 2.051 15.6841C1.96719 15.9357 1.9868 16.2104 2.10551 16.4477C2.22422 16.6849 2.43231 16.8652 2.684 16.9491C3.242 17.1351 3.628 18.0911 3.982 18.5151C4.355 18.9631 4.851 19.4311 5.562 19.7331C6.244 20.0231 7.045 20.1261 8 20.0091V21.0001C8 21.2653 8.10536 21.5196 8.29289 21.7072C8.48043 21.8947 8.73478 22.0001 9 22.0001C9.26522 22.0001 9.51957 21.8947 9.70711 21.7072C9.89464 21.5196 10 21.2653 10 21.0001V18.0001C10 17.4261 10.24 16.9101 10.629 16.5441C11.236 15.9721 10.926 14.9761 10.134 14.8181C6.969 14.1871 5 12.1141 5 10.0001C5 9.04205 5.385 8.11905 6.108 7.31605C6.391 7.00205 6.465 6.56005 6.315 6.17605Z" fill="black"/>
</svg>
