<svg width="18" height="18" viewBox="0 0 18 18" fill="none" xmlns="http://www.w3.org/2000/svg">
<path d="M8.272 4.25C8.272 4.05109 8.35102 3.86032 8.49167 3.71967C8.63232 3.57902 8.82309 3.5 9.022 3.5H13.75C13.9489 3.5 14.1397 3.57902 14.2803 3.71967C14.421 3.86032 14.5 4.05109 14.5 4.25V8.979C14.5 9.17791 14.421 9.36868 14.2803 9.50933C14.1397 9.64998 13.9489 9.729 13.75 9.729C13.5511 9.729 13.3603 9.64998 13.2197 9.50933C13.079 9.36868 13 9.17791 13 8.979V6.06L7.78 11.28C7.71078 11.3516 7.628 11.4087 7.53647 11.448C7.44495 11.4872 7.34653 11.5079 7.24694 11.5087C7.14736 11.5095 7.04861 11.4905 6.95646 11.4527C6.8643 11.415 6.78059 11.3592 6.7102 11.2888C6.63982 11.2183 6.58417 11.1346 6.5465 11.0424C6.50883 10.9502 6.4899 10.8514 6.49081 10.7518C6.49173 10.6523 6.51246 10.5539 6.55181 10.4624C6.59116 10.3709 6.64834 10.2882 6.72 10.219L11.94 5H9.022C8.82309 5 8.63232 4.92098 8.49167 4.78033C8.35102 4.63968 8.272 4.44891 8.272 4.25ZM3.157 2.25C3.36859 1.5962 3.7819 1.02627 4.33761 0.62202C4.89331 0.217774 5.56282 1.19936e-05 6.25 0H14.75C15.612 0 16.4386 0.34241 17.0481 0.951903C17.6576 1.5614 18 2.38805 18 3.25V11.838C18.0001 12.4798 17.8102 13.1072 17.4543 13.6412C17.0984 14.1753 16.5924 14.592 16 14.839V14.975C16 16.025 15.47 16.82 14.691 17.319C13.941 17.799 12.974 18.005 11.998 17.999H11.996L7.919 17.995H4C2.843 17.995 1.836 17.633 1.11 16.95C0.383 16.264 0 15.31 0 14.25V5.5C0 4.635 0.216 3.817 0.734 3.204C1.268 2.571 2.044 2.25 2.956 2.25H3.157ZM3 3.75H2.956C2.412 3.75 2.085 3.929 1.88 4.171C1.66 4.433 1.5 4.865 1.5 5.5V14.25C1.5 14.94 1.742 15.484 2.14 15.858C2.54 16.235 3.157 16.495 4 16.495H7.92L12 16.5H12.004C12.792 16.504 13.449 16.334 13.882 16.056C14.254 15.818 14.464 15.506 14.496 15.088H6.25C5.38805 15.088 4.5614 14.7456 3.9519 14.1361C3.34241 13.5266 3 12.7 3 11.838V3.75ZM6.25 1.5C5.78587 1.5 5.34075 1.68437 5.01256 2.01256C4.68437 2.34075 4.5 2.78587 4.5 3.25V11.838C4.5 12.805 5.284 13.588 6.25 13.588H14.75C15.2141 13.588 15.6592 13.4036 15.9874 13.0754C16.3156 12.7472 16.5 12.3021 16.5 11.838V3.25C16.5 2.78587 16.3156 2.34075 15.9874 2.01256C15.6592 1.68437 15.2141 1.5 14.75 1.5H6.25Z" fill="black"/>
</svg>
