<svg width="72" height="72" viewBox="0 0 72 72" fill="none" xmlns="http://www.w3.org/2000/svg">
<path d="M16.269 9.11401C12.417 9.11401 9.57 12.486 9.699 16.14C9.819 19.653 9.66 24.204 8.514 27.912C7.365 31.632 5.424 33.99 2.25 34.293V37.707C5.424 38.01 7.365 40.368 8.514 44.088C9.66 47.799 9.819 52.347 9.696 55.86C9.57 59.514 12.417 62.886 16.272 62.886H55.734C59.586 62.886 62.436 59.514 62.31 55.86C62.187 52.347 62.346 47.799 63.489 44.088C64.641 40.368 66.579 38.01 69.75 37.707V34.293C66.576 33.99 64.641 31.632 63.489 27.912C62.346 24.204 62.187 19.653 62.31 16.14C62.436 12.486 59.586 9.11401 55.734 9.11401H16.269ZM48.012 42.213C48.012 47.247 44.259 50.301 38.028 50.301H27.42C27.2696 50.3014 27.1207 50.2721 26.9817 50.2149C26.8427 50.1576 26.7163 50.0735 26.6098 49.9673C26.5034 49.8611 26.4189 49.735 26.3613 49.5961C26.3037 49.4572 26.274 49.3084 26.274 49.158V22.842C26.2744 22.6919 26.3043 22.5434 26.3622 22.4048C26.42 22.2663 26.5045 22.1405 26.6109 22.0347C26.7173 21.9288 26.8435 21.8449 26.9824 21.7879C27.1212 21.7308 27.2699 21.7016 27.42 21.702H37.965C43.161 21.702 46.572 24.513 46.572 28.836C46.572 31.866 44.277 34.584 41.355 35.058V35.217C45.333 35.652 48.012 38.409 48.012 42.213ZM36.87 25.326H30.822V33.87H35.916C39.855 33.87 42.024 32.283 42.024 29.448C42.024 26.793 40.158 25.326 36.87 25.326ZM30.822 37.257V46.674H37.092C41.193 46.674 43.362 45.027 43.362 41.934C43.362 38.844 41.133 37.257 36.828 37.257H30.822Z" fill="#181818"/>
</svg>
