<svg width="72" height="72" viewBox="0 0 72 72" fill="none" xmlns="http://www.w3.org/2000/svg">
<path d="M42.69 36.012C42.69 37.7905 41.9837 39.4963 40.7263 40.7542C39.469 42.0121 37.7636 42.7192 35.985 42.72C34.2059 42.72 32.4997 42.0133 31.2417 40.7553C29.9837 39.4973 29.277 37.7911 29.277 36.012C29.277 34.2334 29.9833 32.5277 31.2407 31.2698C32.498 30.0119 34.2034 29.3048 35.982 29.304C37.7611 29.304 39.4673 30.0107 40.7253 31.2687C41.9833 32.5267 42.69 34.2329 42.69 36.012ZM50.634 3.94199C46.596 3.94199 41.313 6.82199 35.97 11.808C30.63 6.84899 25.344 4.00199 21.309 4.00199C20.079 4.00199 18.96 4.28099 17.991 4.83599C13.866 7.21499 12.942 14.628 15.072 23.931C5.94 26.751 0 31.26 0 36.012C0 40.782 5.97 45.303 15.129 48.102C13.017 57.441 13.959 64.866 18.093 67.242C19.053 67.803 20.163 68.067 21.399 68.067C25.434 68.067 30.72 65.187 36.063 60.195C41.403 65.157 46.689 68.004 50.724 68.004C51.954 68.004 53.073 67.734 54.042 67.179C58.164 64.803 59.091 57.39 56.961 48.084C66.06 45.288 72 40.77 72 36.012C72 31.242 66.03 26.721 56.871 23.916C58.983 14.586 58.041 7.15499 53.907 4.77599C52.9076 4.21397 51.7804 3.92624 50.634 3.94199ZM50.619 7.21199V7.22999C51.294 7.22999 51.837 7.36199 52.293 7.61099C54.291 8.75699 55.158 13.116 54.483 18.723C54.321 20.103 54.057 21.558 53.733 23.043C50.6654 22.3007 47.5514 21.7655 44.412 21.441C42.5424 18.861 40.5029 16.4086 38.307 14.1C43.083 9.65999 47.568 7.22399 50.622 7.21499L50.619 7.21199ZM21.309 7.27199C24.345 7.27199 28.851 9.69599 33.639 14.112C31.581 16.272 29.529 18.723 27.579 21.438C24.4323 21.7587 21.3118 22.298 18.24 23.052C17.9179 21.645 17.6636 20.2234 17.478 18.792C16.788 13.188 17.64 8.83199 19.62 7.67099C20.19 7.40099 20.82 7.28699 21.309 7.27199ZM35.955 16.422C37.32 17.826 38.685 19.398 40.035 21.114C38.715 21.054 37.365 21.012 36 21.012C34.62 21.012 33.255 21.042 31.92 21.114C33.24 19.398 34.605 17.829 35.955 16.422ZM36 24.3C38.22 24.3 40.431 24.402 42.606 24.579C43.824 26.325 45.012 28.188 46.155 30.159C47.271 32.079 48.285 34.029 49.209 35.997C48.285 37.962 47.271 39.927 46.17 41.847C45.03 43.827 43.851 45.711 42.63 47.457C38.2266 47.8423 33.7982 47.8473 29.394 47.472C28.1345 45.6618 26.9505 43.8002 25.845 41.892C24.729 39.972 23.715 38.022 22.791 36.054C23.718 34.0566 24.732 32.1007 25.83 30.192C26.97 28.212 28.149 26.334 29.37 24.588C31.5746 24.3932 33.7868 24.2951 36 24.294V24.3ZM25.095 25.062C24.375 26.193 23.655 27.351 22.983 28.542C22.308 29.712 21.678 30.888 21.078 32.064C20.283 30.096 19.608 28.134 19.05 26.223C20.97 25.773 22.995 25.371 25.095 25.062ZM46.875 25.062C48.96 25.371 50.97 25.752 52.893 26.223C52.353 28.119 51.678 30.069 50.913 32.022C49.6888 29.634 48.342 27.3109 46.878 25.062H46.875ZM56.064 27.087C57.516 27.537 58.896 28.038 60.189 28.581C65.385 30.801 68.745 33.705 68.745 36.009C68.73 38.313 65.37 41.229 60.174 43.434C58.914 43.974 57.534 44.46 56.109 44.913C55.2079 41.8633 54.1055 38.8767 52.809 35.973C54.159 32.922 55.239 29.943 56.064 27.081V27.087ZM15.879 27.099C16.713 29.979 17.814 32.97 19.179 36.039C17.8919 38.9254 16.8033 41.8963 15.921 44.931C14.469 44.481 13.089 43.977 11.811 43.431C6.615 41.22 3.255 38.313 3.255 36.009C3.255 33.705 6.615 30.783 11.811 28.581C13.071 28.041 14.451 27.555 15.879 27.099ZM50.913 39.939C51.708 41.91 52.383 43.875 52.941 45.783C51.021 46.254 48.993 46.653 46.893 46.953C48.3552 44.6866 49.695 42.3454 50.913 39.939ZM21.078 39.999C21.678 41.175 22.308 42.348 22.998 43.524C23.688 44.694 24.393 45.84 25.113 46.953C23.0902 46.6604 21.082 46.2739 19.095 45.795C19.635 43.905 20.313 41.949 21.075 39.996L21.078 39.999ZM53.76 48.96C54.096 50.439 54.36 51.864 54.522 53.229C55.212 58.833 54.36 63.189 52.38 64.353C51.939 64.623 51.366 64.737 50.691 64.737C47.655 64.737 43.149 62.316 38.361 57.897C40.419 55.737 42.471 53.289 44.421 50.577C47.742 50.223 50.883 49.68 53.76 48.96ZM18.27 48.99C21.15 49.692 24.288 50.235 27.591 50.586C29.571 53.301 31.626 55.767 33.696 57.924C28.911 62.373 24.42 64.809 21.366 64.809C20.7891 64.8136 20.2197 64.6777 19.707 64.413C17.709 63.273 16.842 58.911 17.517 53.304C17.679 51.924 17.946 50.472 18.27 48.99ZM31.95 50.91C33.27 50.97 34.62 51.012 35.985 51.012C37.365 51.012 38.73 50.982 40.065 50.91C38.745 52.626 37.38 54.195 36.03 55.605C34.665 54.195 33.3 52.626 31.95 50.91Z" fill="#181818"/>
</svg>
