<svg width="72" height="72" viewBox="0 0 72 72" fill="none" xmlns="http://www.w3.org/2000/svg">
<path d="M15 42C16.1867 42 17.3467 41.6481 18.3334 40.9888C19.3201 40.3295 20.0892 39.3925 20.5433 38.2961C20.9974 37.1997 21.1162 35.9933 20.8847 34.8295C20.6532 33.6656 20.0818 32.5965 19.2426 31.7574C18.4035 30.9182 17.3344 30.3468 16.1705 30.1153C15.0067 29.8838 13.8003 30.0026 12.7039 30.4567C11.6075 30.9109 10.6705 31.6799 10.0112 32.6666C9.35189 33.6533 9 34.8133 9 36" stroke="black" stroke-width="1.5" stroke-linecap="round"/>
<path d="M36 42C39.3137 42 42 39.3137 42 36C42 32.6863 39.3137 30 36 30C32.6863 30 30 32.6863 30 36C30 39.3137 32.6863 42 36 42Z" stroke="black" stroke-width="1.5"/>
<path d="M63 36C63 37.1867 62.6481 38.3467 61.9888 39.3334C61.3295 40.3201 60.3925 41.0892 59.2961 41.5433C58.1997 41.9974 56.9933 42.1162 55.8295 41.8847C54.6656 41.6532 53.5965 41.0818 52.7574 40.2426C51.9182 39.4035 51.3468 38.3344 51.1153 37.1705C50.8838 36.0067 51.0026 34.8003 51.4567 33.7039C51.9109 32.6075 52.6799 31.6705 53.6666 31.0112C54.6533 30.3519 55.8133 30 57 30" stroke="black" stroke-width="1.5" stroke-linecap="round"/>
</svg>
