<svg width="59" height="22" viewBox="0 0 59 22" fill="none" xmlns="http://www.w3.org/2000/svg">
<path d="M5 0.5H54C56.4853 0.5 58.5 2.51472 58.5 5V17C58.5 19.4853 56.4853 21.5 54 21.5H5C2.51472 21.5 0.5 19.4853 0.5 17V5C0.5 2.51472 2.51472 0.5 5 0.5Z" fill="#D9D9D9" stroke="black"/>
<path fill-rule="evenodd" clip-rule="evenodd" d="M47 12.2378L50.0934 15.3313C50.2576 15.4954 50.4802 15.5876 50.7123 15.5876C50.9445 15.5876 51.1671 15.4954 51.3312 15.3313C51.4954 15.1671 51.5876 14.9445 51.5876 14.7123C51.5876 14.4802 51.4954 14.2576 51.3312 14.0934L48.2367 11L51.3307 7.90659C51.4119 7.82531 51.4763 7.72883 51.5203 7.62265C51.5642 7.51647 51.5868 7.40267 51.5868 7.28776C51.5868 7.17284 51.5641 7.05905 51.5201 6.95289C51.4761 6.84674 51.4116 6.75028 51.3304 6.66904C51.2491 6.58781 51.1526 6.52337 51.0464 6.47942C50.9402 6.43547 50.8265 6.41286 50.7115 6.41289C50.5966 6.41291 50.4828 6.43558 50.3767 6.47958C50.2705 6.52358 50.1741 6.58806 50.0928 6.66934L47 9.76275L43.9066 6.66934C43.8259 6.58573 43.7294 6.51902 43.6226 6.47312C43.5159 6.42721 43.4011 6.40302 43.2849 6.40195C43.1687 6.40089 43.0535 6.42297 42.946 6.46692C42.8384 6.51086 42.7407 6.57579 42.6585 6.65791C42.5763 6.74002 42.5113 6.83769 42.4672 6.9452C42.4232 7.05271 42.401 7.16792 42.4019 7.2841C42.4029 7.40029 42.427 7.51511 42.4728 7.62189C42.5186 7.72866 42.5852 7.82525 42.6687 7.906L45.7633 11L42.6693 14.094C42.5858 14.1748 42.5192 14.2713 42.4734 14.3781C42.4276 14.4849 42.4035 14.5997 42.4025 14.7159C42.4016 14.8321 42.4238 14.9473 42.4678 15.0548C42.5119 15.1623 42.5769 15.26 42.6591 15.3421C42.7413 15.4242 42.839 15.4891 42.9465 15.5331C43.0541 15.577 43.1693 15.5991 43.2855 15.5981C43.4017 15.597 43.5165 15.5728 43.6232 15.5269C43.73 15.481 43.8265 15.4143 43.9072 15.3307L47 12.2378Z" fill="black"/>
<path d="M24.3333 6.33334H33.6666V15.6667H24.3333V6.33334ZM25.5 8.66667V14.5H32.5V8.66667H25.5Z" fill="black"/>
<path d="M15.6666 12.1667H6.33331V9.83334H15.6666" fill="black"/>
</svg>
