<svg width="59" height="22" viewBox="0 0 59 22" fill="none" xmlns="http://www.w3.org/2000/svg">
<path d="M54 0.5H5C2.51472 0.5 0.5 2.51472 0.5 5V17C0.5 19.4853 2.51472 21.5 5 21.5H54C56.4853 21.5 58.5 19.4853 58.5 17V5C58.5 2.51472 56.4853 0.5 54 0.5Z" fill="#D9D9D9" stroke="black"/>
<path fill-rule="evenodd" clip-rule="evenodd" d="M11.9999 12.2378L8.90653 15.3313C8.74238 15.4954 8.51975 15.5876 8.28761 15.5876C8.05547 15.5876 7.83284 15.4954 7.6687 15.3313C7.50455 15.1671 7.41233 14.9445 7.41233 14.7123C7.41233 14.4802 7.50455 14.2576 7.6687 14.0934L10.7633 11L7.66928 7.90659C7.58804 7.82531 7.52361 7.72883 7.47965 7.62265C7.4357 7.51647 7.4131 7.40267 7.41312 7.28776C7.41315 7.17284 7.43581 7.05905 7.47981 6.95289C7.52381 6.84674 7.58829 6.75028 7.66957 6.66904C7.75085 6.58781 7.84733 6.52337 7.95351 6.47942C8.05969 6.43547 8.17349 6.41286 8.2884 6.41289C8.40332 6.41291 8.51711 6.43558 8.62326 6.47958C8.72942 6.52358 8.82587 6.58806 8.90711 6.66934L11.9999 9.76275L15.0934 6.66934C15.174 6.58573 15.2706 6.51902 15.3773 6.47312C15.484 6.42721 15.5988 6.40302 15.715 6.40195C15.8312 6.40089 15.9464 6.42297 16.054 6.46692C16.1615 6.51086 16.2593 6.57579 16.3414 6.65791C16.4236 6.74002 16.4887 6.83769 16.5327 6.9452C16.5768 7.05271 16.5989 7.16792 16.598 7.2841C16.597 7.40029 16.573 7.51511 16.5271 7.62189C16.4813 7.72866 16.4147 7.82525 16.3312 7.906L13.2366 11L16.3306 14.094C16.4141 14.1748 16.4808 14.2713 16.5266 14.3781C16.5724 14.4849 16.5965 14.5997 16.5974 14.7159C16.5984 14.8321 16.5762 14.9473 16.5321 15.0548C16.4881 15.1623 16.4231 15.26 16.3409 15.3421C16.2587 15.4242 16.1609 15.4891 16.0534 15.5331C15.9458 15.577 15.8306 15.5991 15.7144 15.5981C15.5982 15.597 15.4834 15.5728 15.3767 15.5269C15.27 15.481 15.1735 15.4143 15.0928 15.3307L11.9999 12.2378Z" fill="black"/>
<path d="M34.6666 6.33334H25.3333V15.6667H34.6666V6.33334ZM33.5 8.66667V14.5H26.5V8.66667H33.5Z" fill="black"/>
<path d="M43.3334 12.1667H52.6667V9.83334H43.3334" fill="black"/>
</svg>
