<svg width="72" height="72" viewBox="0 0 72 72" fill="none" xmlns="http://www.w3.org/2000/svg">
<path d="M16.389 10.428C20.07 15.675 22.491 22.197 23.04 29.394C23.4655 34.7309 22.779 40.098 21.024 45.156C22.1282 43.8381 23.4853 42.7547 25.0151 41.97C26.5449 41.1852 28.2164 40.715 29.931 40.587C30.081 40.575 30.228 40.569 30.375 40.563C30.615 39.09 31.785 30.213 27.444 20.523C24.24 13.365 18.444 11.043 16.389 10.428ZM21.72 10.539C21.72 10.539 28.938 13.737 31.698 27.18C33.519 36.045 31.845 41.688 30.492 44.499C34.1751 41.0083 38.9497 38.8954 44.01 38.517C46.59 38.322 49.095 38.577 51.456 39.216C51.156 36.993 49.677 28.974 43.26 21.456C33.471 9.98698 21.72 10.539 21.72 10.539ZM66.171 39.642L12.411 48.789C13.8037 49.271 15.0039 50.1892 15.8334 51.4073C16.663 52.6254 17.0777 54.0785 17.016 55.551C16.9926 56.1725 16.8856 56.788 16.698 57.381C16.863 57.3 24.765 53.556 35.724 51.279C45.438 49.26 52.893 50.199 54.579 50.46C55.6393 47.9415 57.2202 45.6756 59.218 43.8112C61.2158 41.9468 63.5853 40.526 66.171 39.642ZM47.532 51.876C40.578 51.876 33.609 53.361 27.69 55.374C19.086 58.302 18.837 59.418 11.04 58.503C5.532 57.858 0 55.158 0 55.158C0 55.158 7.218 61.068 14.742 61.539C20.7 61.914 25.257 59.073 30.687 57.297C38.67 54.684 44.22 54.387 49.446 54.372C58.083 54.348 72 58.059 72 58.059C72 58.059 65.67 54.927 56.901 52.899C53.8266 52.2056 50.6835 51.8605 47.532 51.876Z" fill="#181818"/>
</svg>
